<?xml version="1.0" standalone="no"?>
<!DOCTYPE svg PUBLIC "-//W3C//DTD SVG 20010904//EN"
 "http://www.w3.org/TR/2001/REC-SVG-20010904/DTD/svg10.dtd">
<svg version="1.0" xmlns="http://www.w3.org/2000/svg"
 width="106.000000pt" height="106.000000pt" viewBox="0 0 106.000000 106.000000"
 preserveAspectRatio="xMidYMid meet">
<metadata>
Created by potrace 1.14, written by Peter Selinger 2001-2017
</metadata>
<g transform="translate(0.000000,106.000000) scale(0.100000,-0.100000)"
fill="#000000" stroke="none">
<path d="M46 781 c-2 -3 12 -55 31 -116 19 -60 54 -173 78 -250 l44 -140 65 0
c36 0 69 5 74 10 5 6 30 80 56 165 61 200 69 223 76 232 3 5 24 9 47 10 l41 1
-2 46 -1 46 -92 1 c-51 0 -96 -2 -101 -5 -10 -7 -88 -292 -84 -306 2 -7 0 -7
-6 0 -6 6 -22 55 -36 109 -15 55 -33 122 -41 151 l-15 51 -65 0 c-36 1 -67 -2
-69 -5z"/>
<path d="M626 780 c-3 -5 0 -489 3 -501 0 -3 89 -6 196 -5 l195 1 -2 255 -3
255 -193 0 c-106 1 -195 -2 -196 -5z m292 -148 l-3 -57 -95 0 -95 0 -5 46 c-3
26 -4 51 -3 56 2 5 49 10 104 11 l100 1 -3 -57z m2 -203 l0 -57 -100 1 -100 0
0 53 c0 29 5 54 11 56 5 2 50 3 100 3 l89 0 0 -56z"/>
</g>
</svg>
